<?xml version="1.0" encoding="UTF-8"?>
<svg id="Layer_1" data-name="Layer 1" xmlns="http://www.w3.org/2000/svg" viewBox="0 0 544.73 106.38" width="544.73" height="106.38">
  <defs>
    <style>
      .cls-1 {
        fill: #203319;
      }
    </style>
  </defs>
  <path class="cls-1" d="M53.52,86.08c13.97,0,24.12-7.25,26.63-17.4h-31.37v-19.38h53.65v8.04c0,32.16-23.73,49.04-48.91,49.04C21.62,106.38,0,82.65,0,53.26S24.39,0,53.78,0c26.36,0,41.66,16.21,46.27,29.13l-18.85,9.23c-3.03-7.78-11.07-18.19-27.68-18.19s-31.77,14.24-31.77,32.96,13.05,32.96,31.77,32.96Z"/>
  <path class="cls-1" d="M149.36,32.82c21.22,0,38.23,15.55,38.23,36.51s-17.27,37.04-38.49,37.04-38.36-15.42-38.36-36.65,17.27-36.91,38.62-36.91ZM149.23,87.53c9.62,0,17.27-7.38,17.27-18.06s-7.78-17.93-17.4-17.93-17.27,7.38-17.27,17.93,7.78,18.06,17.4,18.06Z"/>
  <path class="cls-1" d="M249.3,0c20.3,0,39.81,11.07,46.8,30.45l-19.51,8.96c-4.35-11.34-14.5-18.59-27.42-18.59-17.93,0-31.24,14.5-31.24,32.16s12.92,32.56,31.24,32.56c12.92,0,23.2-7.91,27.68-19.11l19.64,9.1c-7.12,19.51-27.29,30.71-47.59,30.71-30.06,0-53.12-22.94-53.12-52.99S219.78,0,249.3,0Z"/>
  <path class="cls-1" d="M351,54.44c-1.58-.26-3.03-.4-4.88-.4-14.1,0-19.11,9.36-19.11,20.96v29.79h-20.56V34.41h20.43v10.81h.13c2.77-6.06,10.02-11.6,19.9-11.6,1.45,0,3.3.26,4.09.53v20.3Z"/>
  <path class="cls-1" d="M376.99,75.27c1.32,8.83,8.83,13.84,17.4,13.84,5.93,0,12.52-3.16,15.69-8.44l14.9,9.75c-5.93,10.68-16.08,15.95-30.32,15.95-21.35,0-38.62-15.03-38.62-36.91,0-20.3,17-36.78,37.31-36.78s35.06,14.37,35.06,35.2c0,2.5,0,5.01-.26,7.38h-51.15ZM407.83,61.69c-.4-5.14-4.75-12.26-15.03-12.26-9.23,0-14.5,7.65-15.29,12.26h30.32Z"/>
  <path class="cls-1" d="M544.73,34.41l-22.15,70.39h-20.17l-14.37-44.95h-.13l-14.5,44.95h-19.91l-21.88-70.39h21.09l12.65,43.63h.13l13.18-43.63h18.98l13.18,44.03,13.31-44.03h20.56Z"/>
</svg>